#!OML:ASF H:\ColoradoDance\Project 1\Capture day 1\Session 8\male.ASF
:FULLY-SPECIFIED
:DEGREES
102
upperback -2.214720 -3.224400 2.135260
rfoot -27.701099 -22.197800
lradius 58.437698
lthumb 4.461670 412.174988
rradius 28.807400
lwrist -6.292010
rhand -33.189602 -6.004310
rhumerus -57.356201 -3.054370 -93.642403
lowerneck -2.766990 9.890040 12.759100
lhand -21.945200 -337.757996
ltibia 55.610600
head 3.724970 6.439040 -6.067620
rwrist 13.866400
lfingers 7.125020
rtoes -8.467120
lowerback 4.523640 -2.586560 3.147840
rfingers 7.125020
lclavicle -0.000000 0.000000
upperneck 4.460390 13.477600 -15.477300
rfemur -31.017799 -21.246700 26.864401
thorax -4.881380 -1.691810 0.734086
rclavicle -0.000000 0.000000
rtibia 53.721401
lfoot -23.209200 28.904200
lhumerus -36.337399 -29.917400 93.710403
rthumb -6.397240 -35.887699
root 14.697600 18.103901 21.109900 188.149002 -14.248300 -898.445984
ltoes 6.512970
lfemur -23.705999 28.737400 -10.033700
103
upperback -1.725040 -0.913840 0.499624
rfoot -23.877199 -37.793598
lradius 39.255299
lthumb 9.930720 411.864014
rradius 22.526100
lwrist -10.123100
rhand -24.386999 1.236890
rhumerus -63.354500 5.639920 -91.774498
lowerneck -4.394020 5.420890 7.054500
lhand -16.279301 -337.881989
ltibia 38.475700
head 3.849260 3.504100 -3.085690
rwrist 16.909500
lfingers 7.125020
rtoes 4.213260
lowerback 2.826210 -0.776598 2.770450
rfingers 7.125020
lclavicle -0.000000 0.000000
upperneck 8.688590 7.355750 -7.559600
rfemur -19.677799 -20.612000 14.183300
thorax -3.396160 -0.517750 -0.985598
rclavicle -0.000000 0.000000
rtibia 54.426498
lfoot -18.888000 9.932640
lhumerus -30.221600 -15.959200 84.693001
rthumb 2.103580 -28.732500
root 13.076300 18.738701 22.187901 187.528000 -61.717499 -903.234985
ltoes -3.949660
lfemur -20.381201 13.470700 -19.526400
104
upperback -1.384280 -1.008040 0.283984
rfoot -11.253300 -22.083599
lradius 25.117500
lthumb 1.528800 415.640991
rradius 17.003099
lwrist -9.603660
rhand -35.865700 -9.670430
rhumerus -57.168201 -2.487000 -69.498398
lowerneck -6.183450 -0.094175 3.293520
lhand -24.982201 -334.334015
ltibia 30.015600
head 3.549570 -0.145347 -1.702720
rwrist 26.256399
lfingers 7.125020
rtoes -10.514300
lowerback 3.211810 -0.775299 0.444023
rfingers 7.125020
lclavicle 0.000000 0.000000
upperneck 7.538600 -0.183260 -3.346140
rfemur -31.602699 -7.061370 17.285500
thorax -3.226080 -0.509269 0.103152
rclavicle 0.000000 0.000000
rtibia 56.935799
lfoot -18.557600 7.664960
lhumerus -30.074699 3.042530 64.916100
rthumb -8.980220 -39.459301
root 11.329600 19.085501 22.848801 190.608994 -86.860703 -905.921997
ltoes -0.564403
lfemur -13.476700 -7.266100 -21.054899
105
upperback -1.777760 -1.653380 -1.255270
rfoot -20.469400 -13.199400
lradius 18.362700
lthumb -1.707680 416.994995
rradius 38.715099
lwrist -21.273600
rhand -37.466000 12.718400
rhumerus -47.962200 -7.358350 -68.987297
lowerneck -4.692110 -2.537580 1.008440
lhand -28.333200 -332.977997
ltibia 15.909900
head 2.594190 -1.713660 -0.249605
rwrist 3.154290
lfingers 7.125020
rtoes -7.681140
lowerback 2.120160 -1.114440 -3.219600
rfingers 7.125020
lclavicle -0.000000 -0.000000
upperneck 5.684490 -3.489500 0.161176
rfemur -42.256500 2.999400 9.189660
thorax -2.964240 -0.778467 0.589408
rclavicle -0.000000 -0.000000
rtibia 36.141300
lfoot -17.185499 2.897630
lhumerus -42.930302 7.374160 56.342899
rthumb -10.524200 -16.998100
root 9.098140 19.114599 23.189199 337.800995 -83.148598 -1052.060059
ltoes -1.334440
lfemur -0.411772 -10.231300 -25.278601
